<svg width="16" height="16" viewBox="0 0 16 16" fill="none" xmlns="http://www.w3.org/2000/svg">
<path d="M11.7078 9.57878C12.3067 8.59525 12.6234 7.46593 12.6233 6.31443C12.6233 2.82609 9.8007 0.0013913 6.31165 0C2.82574 0.00104348 0 2.82609 0 6.31374C0 9.79826 2.82609 12.623 6.31374 12.623C7.51026 12.623 8.62504 12.2849 9.57774 11.7071L13.871 16L16 13.8699L11.7078 9.57878ZM6.31304 10.2191C4.15583 10.2139 2.41183 8.47061 2.408 6.31791C2.40947 5.28262 2.82135 4.29014 3.55334 3.55801C4.28534 2.82588 5.27775 2.41383 6.31304 2.41217C8.46922 2.41774 10.2139 4.16104 10.2184 6.31791C10.2139 8.46817 8.46852 10.2139 6.31304 10.2191Z" fill="#091A31"/>
</svg>
