<svg width="16" height="13" viewBox="0 0 16 13" fill="none" xmlns="http://www.w3.org/2000/svg">
<path d="M11.9793 7.96964L11.9793 7.9696L11.9744 7.97445L7.97445 11.9744L7.97354 11.9754C7.87162 12.0778 7.75046 12.1591 7.61703 12.2146L7.80896 12.6763L7.61703 12.2146C7.48359 12.27 7.34051 12.2986 7.196 12.2986C7.05149 12.2986 6.90841 12.27 6.77497 12.2146L6.58304 12.6763L6.77497 12.2146C6.64154 12.1591 6.52038 12.0778 6.41846 11.9754L6.41755 11.9744L0.825553 6.38245C0.619968 6.17686 0.5 5.90272 0.5 5.6V1.6C0.5 0.988142 0.988142 0.5 1.6 0.5H5.6C5.90456 0.5 6.17819 0.621297 6.37445 0.817553L11.9744 6.41755C12.1743 6.61744 12.3 6.8924 12.3 7.2C12.3 7.5039 12.1794 7.77499 11.9793 7.96964ZM9.93716 1.36995L10.032 1.27511L15.1744 6.41755L15.1744 6.41759L15.1793 6.42236C15.3267 6.56575 15.4323 6.75644 15.4767 6.97091L15.3555 6.8484L9.93716 1.36995ZM15.356 7.55109L15.4766 7.42885C15.4324 7.64066 15.328 7.82885 15.1824 7.97445L11.232 11.9249L11.1367 11.8296L15.356 7.55109ZM2.8 4.5C3.25087 4.5 3.68327 4.32089 4.00208 4.00208C4.32089 3.68327 4.5 3.25087 4.5 2.8C4.5 2.34913 4.32089 1.91673 4.00208 1.59792C3.68327 1.27911 3.25087 1.1 2.8 1.1C2.34913 1.1 1.91673 1.27911 1.59792 1.59792C1.27911 1.91673 1.1 2.34913 1.1 2.8C1.1 3.25087 1.27911 3.68327 1.59792 4.00208C1.91673 4.32089 2.34913 4.5 2.8 4.5Z" fill="url(#paint0_linear)" stroke="#2F80ED"/>
<defs>
<linearGradient id="paint0_linear" x1="8" y1="0" x2="8" y2="12.7986" gradientUnits="userSpaceOnUse">
<stop stop-color="#30E82C"/>
<stop offset="0.416667" stop-color="#FBFF45"/>
<stop offset="1" stop-color="#E82C2C"/>
</linearGradient>
</defs>
</svg>
