<svg width="14" height="18" viewBox="0 0 14 18" fill="none" xmlns="http://www.w3.org/2000/svg">
<path d="M8.01562 0C8.01562 0 8.64 2.23629 8.64 4.05063C8.64 5.78903 7.50094 7.19831 5.76281 7.19831C4.01625 7.19831 2.7 5.78903 2.7 4.05063L2.72531 3.74684C1.02094 5.77215 0 8.39662 0 11.2489C0 14.9789 3.02062 18 6.75 18C10.4794 18 13.5 14.9789 13.5 11.2489C13.5 6.70042 11.3147 2.64135 8.01562 0ZM6.50531 15.4684C5.00344 15.4684 3.78844 14.2869 3.78844 12.8186C3.78844 11.4515 4.67438 10.4895 6.15938 10.1857C7.65281 9.88186 9.19687 9.16456 10.0575 8.00844C10.3866 9.09705 10.5553 10.2447 10.5553 11.4177C10.5553 13.654 8.74125 15.4684 6.50531 15.4684Z" fill="black"/>
</svg>
